<?xml version="1.0" encoding="UTF-8" standalone="no"?>
<!DOCTYPE svg PUBLIC "-//W3C//DTD SVG 1.1//EN"
 "http://www.w3.org/Graphics/SVG/1.1/DTD/svg11.dtd">
<!-- Generated by graphviz version 2.40.1 (20161225.0304)
 -->
<!-- Title: dependencies Pages: 1 -->
<svg width="338pt" height="556pt"
     viewBox="0.00 0.00 337.50 556.00" xmlns="http://www.w3.org/2000/svg">
<g id="graph0" class="graph" transform="scale(1 1) rotate(0) translate(4 552)">
<title>dependencies</title>
<polygon fill="#ffffff" stroke="transparent" points="-4,4 -4,-552 333.5,-552 333.5,4 -4,4"/>
<!-- AbstractAuthFilter&lt;USER&gt; -->
<g id="node1" class="node">
<title>AbstractAuthFilter&lt;USER&gt;</title>
<polygon fill="none" stroke="#000000" points="96,-511.5 96,-547.5 224,-547.5 224,-511.5 96,-511.5"/>
<text text-anchor="middle" x="160" y="-527.6" font-family="Bitstream Vera Sans" font-size="8.00" fill="#000000">AbstractAuthFilter&lt;USER&gt;</text>
</g>
<!-- AbstractSessionAuthFilter&lt;USER&gt; -->
<g id="node2" class="node">
<title>AbstractSessionAuthFilter&lt;USER&gt;</title>
<polygon fill="none" stroke="#000000" points="79.5,-438.5 79.5,-474.5 240.5,-474.5 240.5,-438.5 79.5,-438.5"/>
<text text-anchor="middle" x="160" y="-454.6" font-family="Bitstream Vera Sans" font-size="8.00" fill="#000000">AbstractSessionAuthFilter&lt;USER&gt;</text>
</g>
<!-- AbstractAuthFilter&lt;USER&gt;&#45;&gt;AbstractSessionAuthFilter&lt;USER&gt; -->
<g id="edge1" class="edge">
<title>AbstractAuthFilter&lt;USER&gt;&#45;&gt;AbstractSessionAuthFilter&lt;USER&gt;</title>
<path fill="none" stroke="#000000" d="M160,-501.3688C160,-492.3769 160,-482.6687 160,-474.5904"/>
<polygon fill="none" stroke="#000000" points="156.5001,-501.455 160,-511.4551 163.5001,-501.4551 156.5001,-501.455"/>
</g>
<!-- AbstractOAuthFilter&lt;USER&gt; -->
<g id="node3" class="node">
<title>AbstractOAuthFilter&lt;USER&gt;</title>
<polygon fill="none" stroke="#000000" points="12.5,-365.5 12.5,-401.5 147.5,-401.5 147.5,-365.5 12.5,-365.5"/>
<text text-anchor="middle" x="80" y="-381.6" font-family="Bitstream Vera Sans" font-size="8.00" fill="#000000">AbstractOAuthFilter&lt;USER&gt;</text>
</g>
<!-- AbstractSessionAuthFilter&lt;USER&gt;&#45;&gt;AbstractOAuthFilter&lt;USER&gt; -->
<g id="edge2" class="edge">
<title>AbstractSessionAuthFilter&lt;USER&gt;&#45;&gt;AbstractOAuthFilter&lt;USER&gt;</title>
<path fill="none" stroke="#000000" d="M132.6679,-431.5595C121.8868,-421.7217 109.7365,-410.6346 99.8251,-401.5904"/>
<polygon fill="none" stroke="#000000" points="130.4786,-434.2999 140.2247,-438.4551 135.197,-429.1291 130.4786,-434.2999"/>
</g>
<!-- AbstractFormAuthFilter&lt;USER&gt; -->
<g id="node6" class="node">
<title>AbstractFormAuthFilter&lt;USER&gt;</title>
<polygon fill="none" stroke="#000000" points="169,-365.5 169,-401.5 319,-401.5 319,-365.5 169,-365.5"/>
<text text-anchor="middle" x="244" y="-381.6" font-family="Bitstream Vera Sans" font-size="8.00" fill="#000000">AbstractFormAuthFilter&lt;USER&gt;</text>
</g>
<!-- AbstractSessionAuthFilter&lt;USER&gt;&#45;&gt;AbstractFormAuthFilter&lt;USER&gt; -->
<g id="edge5" class="edge">
<title>AbstractSessionAuthFilter&lt;USER&gt;&#45;&gt;AbstractFormAuthFilter&lt;USER&gt;</title>
<path fill="none" stroke="#000000" d="M188.3694,-431.8457C199.7709,-421.9372 212.6756,-410.7224 223.1837,-401.5904"/>
<polygon fill="none" stroke="#000000" points="186.0162,-429.2537 180.7641,-438.4551 190.6079,-434.5373 186.0162,-429.2537"/>
</g>
<!-- AbstractOAuthFilter&lt;Instance&gt; -->
<g id="node4" class="node">
<title>AbstractOAuthFilter&lt;Instance&gt;</title>
<polygon fill="none" stroke="#000000" points="0,-292.5 0,-328.5 148,-328.5 148,-292.5 0,-292.5"/>
<text text-anchor="middle" x="74" y="-308.6" font-family="Bitstream Vera Sans" font-size="8.00" fill="#000000">AbstractOAuthFilter&lt;Instance&gt;</text>
</g>
<!-- AbstractOAuthFilter&lt;USER&gt;&#45;&gt;AbstractOAuthFilter&lt;Instance&gt; -->
<g id="edge3" class="edge">
<title>AbstractOAuthFilter&lt;USER&gt;&#45;&gt;AbstractOAuthFilter&lt;Instance&gt;</title>
<path fill="none" stroke="#000000" stroke-dasharray="5,2" d="M77.6878,-355.3688C76.9488,-346.3769 76.1509,-336.6687 75.4869,-328.5904"/>
<polygon fill="#000000" stroke="#000000" points="78.5169,-365.4551 73.2127,-355.8573 78.1072,-360.4719 77.6976,-355.4887 77.6976,-355.4887 77.6976,-355.4887 78.1072,-360.4719 82.1825,-355.12 78.5169,-365.4551 78.5169,-365.4551"/>
</g>
<!-- OAuthFilter -->
<g id="node5" class="node">
<title>OAuthFilter</title>
<polygon fill="none" stroke="#000000" points="42,-219.5 42,-255.5 106,-255.5 106,-219.5 42,-219.5"/>
<text text-anchor="middle" x="74" y="-235.6" font-family="Bitstream Vera Sans" font-size="8.00" fill="#000000">OAuthFilter</text>
</g>
<!-- AbstractOAuthFilter&lt;Instance&gt;&#45;&gt;OAuthFilter -->
<g id="edge4" class="edge">
<title>AbstractOAuthFilter&lt;Instance&gt;&#45;&gt;OAuthFilter</title>
<path fill="none" stroke="#000000" d="M74,-282.3688C74,-273.3769 74,-263.6687 74,-255.5904"/>
<polygon fill="none" stroke="#000000" points="70.5001,-282.455 74,-292.4551 77.5001,-282.4551 70.5001,-282.455"/>
</g>
<!-- AbstractFormAuthFilter&lt;Instance&gt; -->
<g id="node7" class="node">
<title>AbstractFormAuthFilter&lt;Instance&gt;</title>
<polygon fill="none" stroke="#000000" points="166.5,-292.5 166.5,-328.5 329.5,-328.5 329.5,-292.5 166.5,-292.5"/>
<text text-anchor="middle" x="248" y="-308.6" font-family="Bitstream Vera Sans" font-size="8.00" fill="#000000">AbstractFormAuthFilter&lt;Instance&gt;</text>
</g>
<!-- AbstractFormAuthFilter&lt;USER&gt;&#45;&gt;AbstractFormAuthFilter&lt;Instance&gt; -->
<g id="edge6" class="edge">
<title>AbstractFormAuthFilter&lt;USER&gt;&#45;&gt;AbstractFormAuthFilter&lt;Instance&gt;</title>
<path fill="none" stroke="#000000" stroke-dasharray="5,2" d="M245.5414,-355.3688C246.0341,-346.3769 246.5661,-336.6687 247.0087,-328.5904"/>
<polygon fill="#000000" stroke="#000000" points="244.9888,-365.4551 241.0427,-355.2238 245.2624,-360.4625 245.536,-355.47 245.536,-355.47 245.536,-355.47 245.2624,-360.4625 250.0292,-355.7163 244.9888,-365.4551 244.9888,-365.4551"/>
</g>
<!-- FormAuthFilter -->
<g id="node8" class="node">
<title>FormAuthFilter</title>
<polygon fill="none" stroke="#000000" points="208.5,-219.5 208.5,-255.5 287.5,-255.5 287.5,-219.5 208.5,-219.5"/>
<text text-anchor="middle" x="248" y="-235.6" font-family="Bitstream Vera Sans" font-size="8.00" fill="#000000">FormAuthFilter</text>
</g>
<!-- AbstractFormAuthFilter&lt;Instance&gt;&#45;&gt;FormAuthFilter -->
<g id="edge7" class="edge">
<title>AbstractFormAuthFilter&lt;Instance&gt;&#45;&gt;FormAuthFilter</title>
<path fill="none" stroke="#000000" d="M248,-282.3688C248,-273.3769 248,-263.6687 248,-255.5904"/>
<polygon fill="none" stroke="#000000" points="244.5001,-282.455 248,-292.4551 251.5001,-282.4551 244.5001,-282.455"/>
</g>
<!-- RememberMeFormAuthFilter -->
<g id="node9" class="node">
<title>RememberMeFormAuthFilter</title>
<polygon fill="none" stroke="#000000" points="179,-146.5 179,-182.5 317,-182.5 317,-146.5 179,-146.5"/>
<text text-anchor="middle" x="248" y="-162.6" font-family="Bitstream Vera Sans" font-size="8.00" fill="#000000">RememberMeFormAuthFilter</text>
</g>
<!-- FormAuthFilter&#45;&gt;RememberMeFormAuthFilter -->
<g id="edge8" class="edge">
<title>FormAuthFilter&#45;&gt;RememberMeFormAuthFilter</title>
<path fill="none" stroke="#000000" d="M248,-209.3688C248,-200.3769 248,-190.6687 248,-182.5904"/>
<polygon fill="none" stroke="#000000" points="244.5001,-209.455 248,-219.4551 251.5001,-209.4551 244.5001,-209.455"/>
</g>
<!-- RememberMeCookieHandler -->
<g id="node10" class="node">
<title>RememberMeCookieHandler</title>
<polygon fill="none" stroke="#000000" points="179.5,-73.5 179.5,-109.5 316.5,-109.5 316.5,-73.5 179.5,-73.5"/>
<text text-anchor="middle" x="248" y="-89.6" font-family="Bitstream Vera Sans" font-size="8.00" fill="#000000">RememberMeCookieHandler</text>
</g>
<!-- RememberMeFormAuthFilter&#45;&gt;RememberMeCookieHandler -->
<g id="edge9" class="edge">
<title>RememberMeFormAuthFilter&#45;&gt;RememberMeCookieHandler</title>
<path fill="none" stroke="#000000" d="M248,-146.4551C248,-138.3828 248,-128.6764 248,-119.6817"/>
<polygon fill="#000000" stroke="#000000" points="251.5001,-119.5903 248,-109.5904 244.5001,-119.5904 251.5001,-119.5903"/>
</g>
<!-- RememberMeCookieHandlerImpl -->
<g id="node11" class="node">
<title>RememberMeCookieHandlerImpl</title>
<polygon fill="none" stroke="#000000" points="170.5,-.5 170.5,-36.5 325.5,-36.5 325.5,-.5 170.5,-.5"/>
<text text-anchor="middle" x="248" y="-16.6" font-family="Bitstream Vera Sans" font-size="8.00" fill="#000000">RememberMeCookieHandlerImpl</text>
</g>
<!-- RememberMeCookieHandler&#45;&gt;RememberMeCookieHandlerImpl -->
<g id="edge10" class="edge">
<title>RememberMeCookieHandler&#45;&gt;RememberMeCookieHandlerImpl</title>
<path fill="none" stroke="#000000" d="M248,-63.3688C248,-54.3769 248,-44.6687 248,-36.5904"/>
<polygon fill="none" stroke="#000000" points="244.5001,-63.455 248,-73.4551 251.5001,-63.4551 244.5001,-63.455"/>
</g>
</g>
</svg>
