<?xml version="1.0" encoding="UTF-8" standalone="no"?>
<!-- Created with Inkscape (http://www.inkscape.org/) -->

<svg
   xmlns:dc="http://purl.org/dc/elements/1.1/"
   xmlns:cc="http://creativecommons.org/ns#"
   xmlns:rdf="http://www.w3.org/1999/02/22-rdf-syntax-ns#"
   xmlns:svg="http://www.w3.org/2000/svg"
   xmlns="http://www.w3.org/2000/svg"
   xmlns:sodipodi="http://sodipodi.sourceforge.net/DTD/sodipodi-0.dtd"
   xmlns:inkscape="http://www.inkscape.org/namespaces/inkscape"
   width="25mm"
   height="25mm"
   viewBox="0 0 25 25"
   version="1.1"
   id="svg853"
   inkscape:version="0.92.4 (5da689c313, 2019-01-14)"
   sodipodi:docname="favicon.svg">
  <defs
     id="defs847" />
  <sodipodi:namedview
     id="base"
     pagecolor="#ffffff"
     bordercolor="#666666"
     borderopacity="1.0"
     inkscape:pageopacity="0.0"
     inkscape:pageshadow="2"
     inkscape:zoom="1.4"
     inkscape:cx="355.80243"
     inkscape:cy="19.636389"
     inkscape:document-units="mm"
     inkscape:current-layer="layer1"
     showgrid="false"
     width="25mm"
     inkscape:window-width="1920"
     inkscape:window-height="1016"
     inkscape:window-x="1920"
     inkscape:window-y="27"
     inkscape:window-maximized="1" />
  <metadata
     id="metadata850">
    <rdf:RDF>
      <cc:Work
         rdf:about="">
        <dc:format>image/svg+xml</dc:format>
        <dc:type
           rdf:resource="http://purl.org/dc/dcmitype/StillImage" />
        <dc:title></dc:title>
      </cc:Work>
    </rdf:RDF>
  </metadata>
  <g
     inkscape:label="Layer 1"
     inkscape:groupmode="layer"
     id="layer1"
     transform="translate(0,-272)">
    <g
       transform="matrix(0.05102867,0,0,0.05103517,-0.05715594,266.18008)"
       id="layer1-3"
       style="fill:#4d4d4d;fill-opacity:1">
      <path
         inkscape:connector-curvature="0"
         d="m 290,457.36218 c 0,13.80712 -8.95431,25 -20,25 -11.04569,0 -20,-11.19288 -20,-25 0,-13.80712 8.95431,-25 20,-25 11.04569,0 20,11.19288 20,25 z"
         transform="matrix(2.375,0,0,1.9,-391.25,-445.376)"
         style="opacity:1;fill:#4d4d4d;fill-opacity:1;fill-rule:evenodd;stroke:none;stroke-width:0.559017;stroke-linecap:round;stroke-linejoin:bevel;stroke-miterlimit:4;stroke-dasharray:none;stroke-opacity:1"
         id="path1884" />
      <path
         inkscape:connector-curvature="0"
         d="m 15,467.36218 c 20,-135 115,-255 235,-255 120,0 215,120 235,255 1,5 -24,5 -25,0 -25,-95 -90,-185 -210,-185 -120,0 -185,90 -210,185 -1,5 -26,5 -25,0 z"
         style="fill:#4d4d4d;fill-opacity:1"
         id="path2772" />
    </g>
  </g>
</svg>
