<?xml version="1.0" encoding="UTF-8" standalone="no"?>
<!DOCTYPE svg PUBLIC "-//W3C//DTD SVG 1.1//EN"
 "http://www.w3.org/Graphics/SVG/1.1/DTD/svg11.dtd">
<!-- Generated by graphviz version 2.40.1 (20161225.0304)
 -->
<!-- Title: dependencies Pages: 1 -->
<svg width="346pt" height="264pt"
 viewBox="0.00 0.00 345.50 264.00" xmlns="http://www.w3.org/2000/svg" xmlns:xlink="http://www.w3.org/1999/xlink">
<g id="graph0" class="graph" transform="scale(1 1) rotate(0) translate(4 260)">
<title>dependencies</title>
<polygon fill="#ffffff" stroke="transparent" points="-4,4 -4,-260 341.5,-260 341.5,4 -4,4"/>
<!-- Database -->
<g id="node1" class="node">
<title>Database</title>
<path fill="none" stroke="#000000" d="M202.5,-179.2273C202.5,-181.0331 189.2776,-182.5 173,-182.5 156.7224,-182.5 143.5,-181.0331 143.5,-179.2273 143.5,-179.2273 143.5,-149.7727 143.5,-149.7727 143.5,-147.9669 156.7224,-146.5 173,-146.5 189.2776,-146.5 202.5,-147.9669 202.5,-149.7727 202.5,-149.7727 202.5,-179.2273 202.5,-179.2273"/>
<path fill="none" stroke="#000000" d="M202.5,-179.2273C202.5,-177.4214 189.2776,-175.9545 173,-175.9545 156.7224,-175.9545 143.5,-177.4214 143.5,-179.2273"/>
<text text-anchor="start" x="151.5" y="-163.6" font-family="Bitstream Vera Sans" font-weight="bold" font-size="8.00" fill="#000000">Database</text>
</g>
<!-- Model -->
<g id="node2" class="node">
<title>Model</title>
<polygon fill="none" stroke="#000000" points="132.5,-73.5 132.5,-109.5 213.5,-109.5 213.5,-73.5 132.5,-73.5"/>
<text text-anchor="start" x="140.5" y="-94.1" font-family="Bitstream Vera Sans" font-weight="bold" font-size="8.00" fill="#000000">modality&#45;core</text>
<text text-anchor="start" x="151.5" y="-86.1" font-family="Bitstream Vera Sans" font-style="italic" baseline-shift="sub" font-size="8.00" fill="#000000">Model layer</text>
</g>
<!-- Database&#45;&gt;Model -->
<g id="edge3" class="edge">
<title>Database&#45;&gt;Model</title>
<path fill="none" stroke="#000000" d="M173,-136.3688C173,-127.3769 173,-117.6687 173,-109.5904"/>
<polygon fill="#000000" stroke="#000000" points="169.5001,-136.455 173,-146.4551 176.5001,-136.4551 169.5001,-136.455"/>
</g>
<!-- Servlets -->
<g id="node3" class="node">
<title>Servlets</title>
<polygon fill="none" stroke="#000000" points="125,-.5 125,-36.5 217,-36.5 217,-.5 125,-.5"/>
<text text-anchor="start" x="133" y="-17.6" font-family="Bitstream Vera Sans" font-weight="bold" font-size="8.00" fill="#000000">J2EE Servlet API</text>
</g>
<!-- Webapp -->
<g id="node4" class="node">
<title>Webapp</title>
<polygon fill="none" stroke="#000000" points="16.5,-73.5 16.5,-109.5 113.5,-109.5 113.5,-73.5 16.5,-73.5"/>
<text text-anchor="start" x="24.5" y="-98.1" font-family="Bitstream Vera Sans" font-weight="bold" font-size="8.00" fill="#000000">modality&#45;webapp</text>
<text text-anchor="start" x="34.5" y="-90.1" font-family="Bitstream Vera Sans" font-style="italic" baseline-shift="sub" font-size="8.00" fill="#000000">Modality webapp</text>
<text text-anchor="start" x="51" y="-82.1" font-family="Bitstream Vera Sans" font-style="italic" baseline-shift="sub" font-size="8.00" fill="#000000">module</text>
</g>
<!-- Webapp&#45;&gt;Servlets -->
<g id="edge2" class="edge">
<title>Webapp&#45;&gt;Servlets</title>
<path fill="none" stroke="#000000" d="M91.2023,-73.4551C104.8346,-64.0667 121.6769,-52.4678 136.3698,-42.3491"/>
<polygon fill="#000000" stroke="#000000" points="138.4811,-45.1448 144.7318,-36.5904 134.5107,-39.3797 138.4811,-45.1448"/>
</g>
<!-- Auth -->
<g id="node5" class="node">
<title>Auth</title>
<polygon fill="none" stroke="#000000" points="3,-146.5 3,-182.5 125,-182.5 125,-146.5 3,-146.5"/>
<text text-anchor="start" x="11" y="-167.1" font-family="Bitstream Vera Sans" font-weight="bold" font-size="8.00" fill="#000000">modality&#45;webapp&#45;auth</text>
<text text-anchor="start" x="25.5" y="-159.1" font-family="Bitstream Vera Sans" font-style="italic" baseline-shift="sub" font-size="8.00" fill="#000000">authentication filters</text>
</g>
<!-- Auth&#45;&gt;Model -->
<g id="edge4" class="edge">
<title>Auth&#45;&gt;Model</title>
<path fill="none" stroke="#000000" d="M90.9438,-146.4551C104.962,-137.0667 122.281,-125.4678 137.3897,-115.3491"/>
<polygon fill="#000000" stroke="#000000" points="139.6272,-118.0631 145.9884,-109.5904 135.732,-112.2469 139.6272,-118.0631"/>
</g>
<!-- Auth&#45;&gt;Webapp -->
<g id="edge5" class="edge">
<title>Auth&#45;&gt;Webapp</title>
<path fill="none" stroke="#000000" d="M64.2472,-146.4551C64.3578,-138.3828 64.4907,-128.6764 64.6139,-119.6817"/>
<polygon fill="#000000" stroke="#000000" points="68.1148,-119.6374 64.7522,-109.5904 61.1154,-119.5414 68.1148,-119.6374"/>
</g>
<!-- OAuth -->
<g id="node6" class="node">
<title>OAuth</title>
<polygon fill="none" stroke="#000000" points="0,-219.5 0,-255.5 128,-255.5 128,-219.5 0,-219.5"/>
<text text-anchor="start" x="8" y="-240.1" font-family="Bitstream Vera Sans" font-weight="bold" font-size="8.00" fill="#000000">modality&#45;webapp&#45;oauth</text>
<text text-anchor="start" x="41" y="-232.1" font-family="Bitstream Vera Sans" font-style="italic" baseline-shift="sub" font-size="8.00" fill="#000000">OAuth filters</text>
</g>
<!-- OAuth&#45;&gt;Auth -->
<g id="edge6" class="edge">
<title>OAuth&#45;&gt;Auth</title>
<path fill="none" stroke="#000000" d="M64,-219.4551C64,-211.3828 64,-201.6764 64,-192.6817"/>
<polygon fill="#000000" stroke="#000000" points="67.5001,-192.5903 64,-182.5904 60.5001,-192.5904 67.5001,-192.5903"/>
</g>
<!-- ModelTool -->
<g id="node7" class="node">
<title>ModelTool</title>
<polygon fill="none" stroke="#000000" points="220.5,-146.5 220.5,-182.5 337.5,-182.5 337.5,-146.5 220.5,-146.5"/>
<text text-anchor="start" x="228.5" y="-171.1" font-family="Bitstream Vera Sans" font-weight="bold" font-size="8.00" fill="#000000">modality&#45;tools&#45;model</text>
<text text-anchor="start" x="239" y="-163.1" font-family="Bitstream Vera Sans" font-style="italic" baseline-shift="sub" font-size="8.00" fill="#000000">&#39;pull model&#39; view tools</text>
<text text-anchor="start" x="258.5" y="-155.1" font-family="Bitstream Vera Sans" font-style="italic" baseline-shift="sub" font-size="8.00" fill="#000000">for Velocity</text>
</g>
<!-- ModelTool&#45;&gt;Model -->
<g id="edge7" class="edge">
<title>ModelTool&#45;&gt;Model</title>
<path fill="none" stroke="#000000" d="M252.7977,-146.4551C239.1654,-137.0667 222.3231,-125.4678 207.6302,-115.3491"/>
<polygon fill="#000000" stroke="#000000" points="209.4893,-112.3797 199.2682,-109.5904 205.5189,-118.1448 209.4893,-112.3797"/>
</g>
<!-- Velocity -->
<g id="node8" class="node">
<title>Velocity</title>
<polygon fill="none" stroke="#000000" points="232,-73.5 232,-109.5 324,-109.5 324,-73.5 232,-73.5"/>
<text text-anchor="start" x="240" y="-94.1" font-family="Bitstream Vera Sans" font-weight="bold" font-size="8.00" fill="#000000">Apache Velocity</text>
<text text-anchor="start" x="259.5" y="-86.1" font-family="Bitstream Vera Sans" font-style="italic" baseline-shift="sub" font-size="8.00" fill="#000000">View layer</text>
</g>
<!-- ModelTool&#45;&gt;Velocity -->
<g id="edge8" class="edge">
<title>ModelTool&#45;&gt;Velocity</title>
<path fill="none" stroke="#000000" d="M278.7528,-146.4551C278.6422,-138.3828 278.5093,-128.6764 278.3861,-119.6817"/>
<polygon fill="#000000" stroke="#000000" points="281.8846,-119.5414 278.2478,-109.5904 274.8852,-119.6374 281.8846,-119.5414"/>
</g>
<!-- Velocity&#45;&gt;Servlets -->
<g id="edge1" class="edge">
<title>Velocity&#45;&gt;Servlets</title>
<path fill="none" stroke="#000000" d="M251.5506,-73.4551C237.7896,-64.0667 220.7884,-52.4678 205.9569,-42.3491"/>
<polygon fill="#000000" stroke="#000000" points="207.7492,-39.3349 197.516,-36.5904 203.8041,-45.1174 207.7492,-39.3349"/>
</g>
<!-- Bookshelf -->
<g id="node9" class="node">
<title>Bookshelf</title>
<polygon fill="none" stroke="#000000" points="175.5,-219.5 175.5,-255.5 324.5,-255.5 324.5,-219.5 175.5,-219.5"/>
<text text-anchor="start" x="183.5" y="-244.1" font-family="Bitstream Vera Sans" font-weight="bold" font-size="8.00" fill="#000000">modality&#45;example&#45;bookshelf</text>
<text text-anchor="start" x="210.5" y="-236.1" font-family="Bitstream Vera Sans" font-style="italic" baseline-shift="sub" font-size="8.00" fill="#000000">the Bookshelf webapp</text>
<text text-anchor="start" x="234.5" y="-228.1" font-family="Bitstream Vera Sans" font-style="italic" baseline-shift="sub" font-size="8.00" fill="#000000">example</text>
</g>
<!-- Bookshelf&#45;&gt;Auth -->
<g id="edge10" class="edge">
<title>Bookshelf&#45;&gt;Auth</title>
<path fill="none" stroke="#000000" d="M204.0225,-219.4551C178.4248,-209.4087 146.3774,-196.8309 119.4037,-186.2445"/>
<polygon fill="#000000" stroke="#000000" points="120.6807,-182.9858 110.0932,-182.5904 118.1233,-189.5019 120.6807,-182.9858"/>
</g>
<!-- Bookshelf&#45;&gt;ModelTool -->
<g id="edge9" class="edge">
<title>Bookshelf&#45;&gt;ModelTool</title>
<path fill="none" stroke="#000000" d="M257.1685,-219.4551C260.445,-211.2074 264.3993,-201.2536 268.0371,-192.0962"/>
<polygon fill="#000000" stroke="#000000" points="271.3741,-193.1761 271.8134,-182.5904 264.8687,-190.5917 271.3741,-193.1761"/>
</g>
</g>
</svg>
