<?xml version="1.0" encoding="UTF-8" standalone="no"?>
<!DOCTYPE svg PUBLIC "-//W3C//DTD SVG 1.1//EN"
 "http://www.w3.org/Graphics/SVG/1.1/DTD/svg11.dtd">
<!-- Generated by graphviz version 2.40.1 (20161225.0304)
 -->
<!-- Title: dependencies Pages: 1 -->
<svg width="314pt" height="264pt"
 viewBox="0.00 0.00 313.50 264.00" xmlns="http://www.w3.org/2000/svg" xmlns:xlink="http://www.w3.org/1999/xlink">
<g id="graph0" class="graph" transform="scale(1 1) rotate(0) translate(4 260)">
<title>dependencies</title>
<polygon fill="#ffffff" stroke="transparent" points="-4,4 -4,-260 309.5,-260 309.5,4 -4,4"/>
<!-- Database -->
<g id="node1" class="node">
<title>Database</title>
<path fill="none" stroke="#000000" d="M177,-179.2273C177,-181.0331 163.7776,-182.5 147.5,-182.5 131.2224,-182.5 118,-181.0331 118,-179.2273 118,-179.2273 118,-149.7727 118,-149.7727 118,-147.9669 131.2224,-146.5 147.5,-146.5 163.7776,-146.5 177,-147.9669 177,-149.7727 177,-149.7727 177,-179.2273 177,-179.2273"/>
<path fill="none" stroke="#000000" d="M177,-179.2273C177,-177.4214 163.7776,-175.9545 147.5,-175.9545 131.2224,-175.9545 118,-177.4214 118,-179.2273"/>
<text text-anchor="start" x="126" y="-163.6" font-family="Bitstream Vera Sans" font-weight="bold" font-size="8.00" fill="#000000">Database</text>
</g>
<!-- Model -->
<g id="node2" class="node">
<title>Model</title>
<polygon fill="none" stroke="#000000" points="104.5,-73.5 104.5,-109.5 186.5,-109.5 186.5,-73.5 104.5,-73.5"/>
<text text-anchor="start" x="112.5" y="-94.1" font-family="Bitstream Vera Sans" font-weight="bold" font-size="8.00" fill="#000000">motion&#45;model</text>
<text text-anchor="start" x="124" y="-86.1" font-family="Bitstream Vera Sans" font-style="italic" baseline-shift="sub" font-size="8.00" fill="#000000">Model layer</text>
</g>
<!-- Database&#45;&gt;Model -->
<g id="edge3" class="edge">
<title>Database&#45;&gt;Model</title>
<path fill="none" stroke="#000000" d="M146.7293,-136.3688C146.4829,-127.3769 146.217,-117.6687 145.9956,-109.5904"/>
<polygon fill="#000000" stroke="#000000" points="143.233,-136.5547 147.0056,-146.4551 150.2303,-136.3629 143.233,-136.5547"/>
</g>
<!-- Servlets -->
<g id="node3" class="node">
<title>Servlets</title>
<polygon fill="none" stroke="#000000" points="105.5,-.5 105.5,-36.5 197.5,-36.5 197.5,-.5 105.5,-.5"/>
<text text-anchor="start" x="113.5" y="-17.6" font-family="Bitstream Vera Sans" font-weight="bold" font-size="8.00" fill="#000000">J2EE Servlet API</text>
</g>
<!-- Auth -->
<g id="node4" class="node">
<title>Auth</title>
<polygon fill="none" stroke="#000000" points="3,-146.5 3,-182.5 100,-182.5 100,-146.5 3,-146.5"/>
<text text-anchor="start" x="11" y="-167.1" font-family="Bitstream Vera Sans" font-weight="bold" font-size="8.00" fill="#000000">motion&#45;web&#45;auth</text>
<text text-anchor="start" x="13" y="-159.1" font-family="Bitstream Vera Sans" font-style="italic" baseline-shift="sub" font-size="8.00" fill="#000000">authentication filters</text>
</g>
<!-- Auth&#45;&gt;Model -->
<g id="edge4" class="edge">
<title>Auth&#45;&gt;Model</title>
<path fill="none" stroke="#000000" d="M74.736,-146.4551C86.5991,-137.2422 101.2033,-125.9006 114.0576,-115.918"/>
<polygon fill="#000000" stroke="#000000" points="116.4543,-118.4883 122.2056,-109.5904 112.1607,-112.9597 116.4543,-118.4883"/>
</g>
<!-- Auth&#45;&gt;Servlets -->
<g id="edge2" class="edge">
<title>Auth&#45;&gt;Servlets</title>
<path fill="none" stroke="#000000" d="M58.0587,-146.2813C65.4716,-127.0412 78.7219,-96.3236 95.5,-73 103.0509,-62.5033 112.7418,-52.268 121.9325,-43.5546"/>
<polygon fill="#000000" stroke="#000000" points="124.4825,-45.9647 129.4771,-36.6209 119.7458,-40.8106 124.4825,-45.9647"/>
</g>
<!-- OAuth -->
<g id="node5" class="node">
<title>OAuth</title>
<polygon fill="none" stroke="#000000" points="0,-219.5 0,-255.5 103,-255.5 103,-219.5 0,-219.5"/>
<text text-anchor="start" x="8" y="-240.1" font-family="Bitstream Vera Sans" font-weight="bold" font-size="8.00" fill="#000000">motion&#45;web&#45;oauth</text>
<text text-anchor="start" x="28.5" y="-232.1" font-family="Bitstream Vera Sans" font-style="italic" baseline-shift="sub" font-size="8.00" fill="#000000">OAuth filters</text>
</g>
<!-- OAuth&#45;&gt;Auth -->
<g id="edge5" class="edge">
<title>OAuth&#45;&gt;Auth</title>
<path fill="none" stroke="#000000" d="M51.5,-219.4551C51.5,-211.3828 51.5,-201.6764 51.5,-192.6817"/>
<polygon fill="#000000" stroke="#000000" points="55.0001,-192.5903 51.5,-182.5904 48.0001,-192.5904 55.0001,-192.5903"/>
</g>
<!-- ModelTool -->
<g id="node6" class="node">
<title>ModelTool</title>
<polygon fill="none" stroke="#000000" points="195.5,-146.5 195.5,-182.5 305.5,-182.5 305.5,-146.5 195.5,-146.5"/>
<text text-anchor="start" x="203.5" y="-171.1" font-family="Bitstream Vera Sans" font-weight="bold" font-size="8.00" fill="#000000">motion&#45;tools&#45;model</text>
<text text-anchor="start" x="210.5" y="-163.1" font-family="Bitstream Vera Sans" font-style="italic" baseline-shift="sub" font-size="8.00" fill="#000000">&#39;pull model&#39; view tools</text>
<text text-anchor="start" x="230" y="-155.1" font-family="Bitstream Vera Sans" font-style="italic" baseline-shift="sub" font-size="8.00" fill="#000000">for Velocity</text>
</g>
<!-- ModelTool&#45;&gt;Model -->
<g id="edge6" class="edge">
<title>ModelTool&#45;&gt;Model</title>
<path fill="none" stroke="#000000" d="M224.5449,-146.4551C211.0412,-137.0667 194.3578,-125.4678 179.8035,-115.3491"/>
<polygon fill="#000000" stroke="#000000" points="181.729,-112.425 171.5204,-109.5904 177.7331,-118.1725 181.729,-112.425"/>
</g>
<!-- Velocity -->
<g id="node7" class="node">
<title>Velocity</title>
<polygon fill="none" stroke="#000000" points="204.5,-73.5 204.5,-109.5 296.5,-109.5 296.5,-73.5 204.5,-73.5"/>
<text text-anchor="start" x="212.5" y="-94.1" font-family="Bitstream Vera Sans" font-weight="bold" font-size="8.00" fill="#000000">Apache Velocity</text>
<text text-anchor="start" x="232" y="-86.1" font-family="Bitstream Vera Sans" font-style="italic" baseline-shift="sub" font-size="8.00" fill="#000000">View layer</text>
</g>
<!-- ModelTool&#45;&gt;Velocity -->
<g id="edge7" class="edge">
<title>ModelTool&#45;&gt;Velocity</title>
<path fill="none" stroke="#000000" d="M250.5,-146.4551C250.5,-138.3828 250.5,-128.6764 250.5,-119.6817"/>
<polygon fill="#000000" stroke="#000000" points="254.0001,-119.5903 250.5,-109.5904 247.0001,-119.5904 254.0001,-119.5903"/>
</g>
<!-- Velocity&#45;&gt;Servlets -->
<g id="edge1" class="edge">
<title>Velocity&#45;&gt;Servlets</title>
<path fill="none" stroke="#000000" d="M226.0281,-73.4551C213.4149,-64.1545 197.8597,-52.6844 184.2286,-42.6332"/>
<polygon fill="#000000" stroke="#000000" points="186.1592,-39.7082 176.0335,-36.5904 182.0049,-45.3421 186.1592,-39.7082"/>
</g>
<!-- Bookshelf -->
<g id="node8" class="node">
<title>Bookshelf</title>
<polygon fill="none" stroke="#000000" points="150.5,-219.5 150.5,-255.5 292.5,-255.5 292.5,-219.5 150.5,-219.5"/>
<text text-anchor="start" x="158.5" y="-244.1" font-family="Bitstream Vera Sans" font-weight="bold" font-size="8.00" fill="#000000">motion&#45;example&#45;bookshelf</text>
<text text-anchor="start" x="182" y="-236.1" font-family="Bitstream Vera Sans" font-style="italic" baseline-shift="sub" font-size="8.00" fill="#000000">the Bookshelf webapp</text>
<text text-anchor="start" x="206" y="-228.1" font-family="Bitstream Vera Sans" font-style="italic" baseline-shift="sub" font-size="8.00" fill="#000000">example</text>
</g>
<!-- Bookshelf&#45;&gt;Auth -->
<g id="edge9" class="edge">
<title>Bookshelf&#45;&gt;Auth</title>
<path fill="none" stroke="#000000" d="M179.4775,-219.4551C156.3883,-209.5403 127.5576,-197.16 103.109,-186.6615"/>
<polygon fill="#000000" stroke="#000000" points="104.1979,-183.3201 93.6282,-182.5904 101.4359,-189.7522 104.1979,-183.3201"/>
</g>
<!-- Bookshelf&#45;&gt;ModelTool -->
<g id="edge8" class="edge">
<title>Bookshelf&#45;&gt;ModelTool</title>
<path fill="none" stroke="#000000" d="M228.6685,-219.4551C231.945,-211.2074 235.8993,-201.2536 239.5371,-192.0962"/>
<polygon fill="#000000" stroke="#000000" points="242.8741,-193.1761 243.3134,-182.5904 236.3687,-190.5917 242.8741,-193.1761"/>
</g>
</g>
</svg>
