<?xml version="1.0" encoding="UTF-8" standalone="no"?>
<!DOCTYPE svg PUBLIC "-//W3C//DTD SVG 1.1//EN"
 "http://www.w3.org/Graphics/SVG/1.1/DTD/svg11.dtd">
<!-- Generated by graphviz version 2.40.1 (20161225.0304)
 -->
<!-- Title: dependencies Pages: 1 -->
<svg width="331pt" height="264pt"
 viewBox="0.00 0.00 331.00 264.00" xmlns="http://www.w3.org/2000/svg" xmlns:xlink="http://www.w3.org/1999/xlink">
<g id="graph0" class="graph" transform="scale(1 1) rotate(0) translate(4 260)">
<title>dependencies</title>
<polygon fill="#ffffff" stroke="transparent" points="-4,4 -4,-260 327,-260 327,4 -4,4"/>
<!-- Database -->
<g id="node1" class="node">
<title>Database</title>
<path fill="none" stroke="#000000" d="M194.5,-179.2273C194.5,-181.0331 181.2776,-182.5 165,-182.5 148.7224,-182.5 135.5,-181.0331 135.5,-179.2273 135.5,-179.2273 135.5,-149.7727 135.5,-149.7727 135.5,-147.9669 148.7224,-146.5 165,-146.5 181.2776,-146.5 194.5,-147.9669 194.5,-149.7727 194.5,-149.7727 194.5,-179.2273 194.5,-179.2273"/>
<path fill="none" stroke="#000000" d="M194.5,-179.2273C194.5,-177.4214 181.2776,-175.9545 165,-175.9545 148.7224,-175.9545 135.5,-177.4214 135.5,-179.2273"/>
<text text-anchor="start" x="143.5" y="-163.6" font-family="Bitstream Vera Sans" font-weight="bold" font-size="8.00" fill="#000000">Database</text>
</g>
<!-- Model -->
<g id="node2" class="node">
<title>Model</title>
<polygon fill="none" stroke="#000000" points="123,-73.5 123,-109.5 205,-109.5 205,-73.5 123,-73.5"/>
<text text-anchor="start" x="131" y="-94.1" font-family="Bitstream Vera Sans" font-weight="bold" font-size="8.00" fill="#000000">motion&#45;model</text>
<text text-anchor="start" x="142.5" y="-86.1" font-family="Bitstream Vera Sans" font-style="italic" baseline-shift="sub" font-size="8.00" fill="#000000">Model layer</text>
</g>
<!-- Database&#45;&gt;Model -->
<g id="edge3" class="edge">
<title>Database&#45;&gt;Model</title>
<path fill="none" stroke="#000000" d="M164.6146,-136.3688C164.4915,-127.3769 164.3585,-117.6687 164.2478,-109.5904"/>
<polygon fill="#000000" stroke="#000000" points="161.1161,-136.504 164.7528,-146.4551 168.1154,-136.408 161.1161,-136.504"/>
</g>
<!-- Servlets -->
<g id="node3" class="node">
<title>Servlets</title>
<polygon fill="none" stroke="#000000" points="118,-.5 118,-36.5 210,-36.5 210,-.5 118,-.5"/>
<text text-anchor="start" x="126" y="-17.6" font-family="Bitstream Vera Sans" font-weight="bold" font-size="8.00" fill="#000000">J2EE Servlet API</text>
</g>
<!-- Webapp -->
<g id="node4" class="node">
<title>Webapp</title>
<polygon fill="none" stroke="#000000" points="15.5,-73.5 15.5,-109.5 104.5,-109.5 104.5,-73.5 15.5,-73.5"/>
<text text-anchor="start" x="23.5" y="-98.1" font-family="Bitstream Vera Sans" font-weight="bold" font-size="8.00" fill="#000000">motion&#45;webapp</text>
<text text-anchor="start" x="32.5" y="-90.1" font-family="Bitstream Vera Sans" font-style="italic" baseline-shift="sub" font-size="8.00" fill="#000000">Motion webapp</text>
<text text-anchor="start" x="46" y="-82.1" font-family="Bitstream Vera Sans" font-style="italic" baseline-shift="sub" font-size="8.00" fill="#000000">module</text>
</g>
<!-- Webapp&#45;&gt;Servlets -->
<g id="edge2" class="edge">
<title>Webapp&#45;&gt;Servlets</title>
<path fill="none" stroke="#000000" d="M85.7079,-73.4551C99.083,-64.0667 115.6075,-52.4678 130.0232,-42.3491"/>
<polygon fill="#000000" stroke="#000000" points="132.0533,-45.2003 138.2274,-36.5904 128.0317,-39.4709 132.0533,-45.2003"/>
</g>
<!-- Auth -->
<g id="node5" class="node">
<title>Auth</title>
<polygon fill="none" stroke="#000000" points="3,-146.5 3,-182.5 117,-182.5 117,-146.5 3,-146.5"/>
<text text-anchor="start" x="11" y="-167.1" font-family="Bitstream Vera Sans" font-weight="bold" font-size="8.00" fill="#000000">motion&#45;webapp&#45;auth</text>
<text text-anchor="start" x="21.5" y="-159.1" font-family="Bitstream Vera Sans" font-style="italic" baseline-shift="sub" font-size="8.00" fill="#000000">authentication filters</text>
</g>
<!-- Auth&#45;&gt;Model -->
<g id="edge4" class="edge">
<title>Auth&#45;&gt;Model</title>
<path fill="none" stroke="#000000" d="M85.7079,-146.4551C99.083,-137.0667 115.6075,-125.4678 130.0232,-115.3491"/>
<polygon fill="#000000" stroke="#000000" points="132.0533,-118.2003 138.2274,-109.5904 128.0317,-112.4709 132.0533,-118.2003"/>
</g>
<!-- Auth&#45;&gt;Webapp -->
<g id="edge5" class="edge">
<title>Auth&#45;&gt;Webapp</title>
<path fill="none" stroke="#000000" d="M60,-146.4551C60,-138.3828 60,-128.6764 60,-119.6817"/>
<polygon fill="#000000" stroke="#000000" points="63.5001,-119.5903 60,-109.5904 56.5001,-119.5904 63.5001,-119.5903"/>
</g>
<!-- OAuth -->
<g id="node6" class="node">
<title>OAuth</title>
<polygon fill="none" stroke="#000000" points="0,-219.5 0,-255.5 120,-255.5 120,-219.5 0,-219.5"/>
<text text-anchor="start" x="8" y="-240.1" font-family="Bitstream Vera Sans" font-weight="bold" font-size="8.00" fill="#000000">motion&#45;webapp&#45;oauth</text>
<text text-anchor="start" x="37" y="-232.1" font-family="Bitstream Vera Sans" font-style="italic" baseline-shift="sub" font-size="8.00" fill="#000000">OAuth filters</text>
</g>
<!-- OAuth&#45;&gt;Auth -->
<g id="edge6" class="edge">
<title>OAuth&#45;&gt;Auth</title>
<path fill="none" stroke="#000000" d="M60,-219.4551C60,-211.3828 60,-201.6764 60,-192.6817"/>
<polygon fill="#000000" stroke="#000000" points="63.5001,-192.5903 60,-182.5904 56.5001,-192.5904 63.5001,-192.5903"/>
</g>
<!-- ModelTool -->
<g id="node7" class="node">
<title>ModelTool</title>
<polygon fill="none" stroke="#000000" points="213,-146.5 213,-182.5 323,-182.5 323,-146.5 213,-146.5"/>
<text text-anchor="start" x="221" y="-171.1" font-family="Bitstream Vera Sans" font-weight="bold" font-size="8.00" fill="#000000">motion&#45;tools&#45;model</text>
<text text-anchor="start" x="228" y="-163.1" font-family="Bitstream Vera Sans" font-style="italic" baseline-shift="sub" font-size="8.00" fill="#000000">&#39;pull model&#39; view tools</text>
<text text-anchor="start" x="247.5" y="-155.1" font-family="Bitstream Vera Sans" font-style="italic" baseline-shift="sub" font-size="8.00" fill="#000000">for Velocity</text>
</g>
<!-- ModelTool&#45;&gt;Model -->
<g id="edge7" class="edge">
<title>ModelTool&#45;&gt;Model</title>
<path fill="none" stroke="#000000" d="M242.2921,-146.4551C228.917,-137.0667 212.3925,-125.4678 197.9768,-115.3491"/>
<polygon fill="#000000" stroke="#000000" points="199.9683,-112.4709 189.7726,-109.5904 195.9467,-118.2003 199.9683,-112.4709"/>
</g>
<!-- Velocity -->
<g id="node8" class="node">
<title>Velocity</title>
<polygon fill="none" stroke="#000000" points="223,-73.5 223,-109.5 315,-109.5 315,-73.5 223,-73.5"/>
<text text-anchor="start" x="231" y="-94.1" font-family="Bitstream Vera Sans" font-weight="bold" font-size="8.00" fill="#000000">Apache Velocity</text>
<text text-anchor="start" x="250.5" y="-86.1" font-family="Bitstream Vera Sans" font-style="italic" baseline-shift="sub" font-size="8.00" fill="#000000">View layer</text>
</g>
<!-- ModelTool&#45;&gt;Velocity -->
<g id="edge8" class="edge">
<title>ModelTool&#45;&gt;Velocity</title>
<path fill="none" stroke="#000000" d="M268.2472,-146.4551C268.3578,-138.3828 268.4907,-128.6764 268.6139,-119.6817"/>
<polygon fill="#000000" stroke="#000000" points="272.1148,-119.6374 268.7522,-109.5904 265.1154,-119.5414 272.1148,-119.6374"/>
</g>
<!-- Velocity&#45;&gt;Servlets -->
<g id="edge1" class="edge">
<title>Velocity&#45;&gt;Servlets</title>
<path fill="none" stroke="#000000" d="M243.0449,-73.4551C229.5412,-64.0667 212.8578,-52.4678 198.3035,-42.3491"/>
<polygon fill="#000000" stroke="#000000" points="200.229,-39.425 190.0204,-36.5904 196.2331,-45.1725 200.229,-39.425"/>
</g>
<!-- Bookshelf -->
<g id="node9" class="node">
<title>Bookshelf</title>
<polygon fill="none" stroke="#000000" points="167,-219.5 167,-255.5 309,-255.5 309,-219.5 167,-219.5"/>
<text text-anchor="start" x="175" y="-244.1" font-family="Bitstream Vera Sans" font-weight="bold" font-size="8.00" fill="#000000">motion&#45;example&#45;bookshelf</text>
<text text-anchor="start" x="198.5" y="-236.1" font-family="Bitstream Vera Sans" font-style="italic" baseline-shift="sub" font-size="8.00" fill="#000000">the Bookshelf webapp</text>
<text text-anchor="start" x="222.5" y="-228.1" font-family="Bitstream Vera Sans" font-style="italic" baseline-shift="sub" font-size="8.00" fill="#000000">example</text>
</g>
<!-- Bookshelf&#45;&gt;Auth -->
<g id="edge10" class="edge">
<title>Bookshelf&#45;&gt;Auth</title>
<path fill="none" stroke="#000000" d="M194,-219.4551C169.7172,-209.4964 139.3695,-197.0504 113.6982,-186.5223"/>
<polygon fill="#000000" stroke="#000000" points="114.691,-183.1466 104.1107,-182.5904 112.0348,-189.6231 114.691,-183.1466"/>
</g>
<!-- Bookshelf&#45;&gt;ModelTool -->
<g id="edge9" class="edge">
<title>Bookshelf&#45;&gt;ModelTool</title>
<path fill="none" stroke="#000000" d="M245.4157,-219.4551C248.8052,-211.2074 252.8958,-201.2536 256.6591,-192.0962"/>
<polygon fill="#000000" stroke="#000000" points="260.0017,-193.1702 260.5656,-182.5904 253.5271,-190.5094 260.0017,-193.1702"/>
</g>
</g>
</svg>
